# xmcd
#
# Track frame offsets: 
#        150
#        27044
#        49441
#        73342
#        100355
#        125815
#        164416
#        178853
#        203891
#        209791
#
# Disc length: 2974 seconds
#
# Revision: 0
# Processed by: cddbd v1.5.2PL0 Copyright (c) Steve Scherf et al.
# Submitted via: ExactAudioCopy v1.0b3
#
DISCID=a40b9c0a
DTITLE=Jo Schumacher - The Spirit of Boogie Woogie
DYEAR=1900
DGENRE=
TTITLE0=Freshmaker Boogie Express
TTITLE1=ersal Blues
TTITLE2=Bear Cat Crawl
TTITLE3=Pinetop's Boogie Woogie
TTITLE4=Besame Mucho
TTITLE5=Sprit Of Boogie Woogie
TTITLE6=Four O'clock Blues
TTITLE7=Sheik Of Araby Boogie
TTITLE8=Shufflin' Out
TTITLE9=A Pane In The Glass
EXTD=
EXTT0=
EXTT1=
EXTT2=
EXTT3=
EXTT4=
EXTT5=
EXTT6=
EXTT7=
EXTT8=
EXTT9=
PLAYORDER=
